# xmcd
# 
# Track frame offsets:
#     150
#     25115
#     29746
#     56218
#     69528
#     90502
#     118097
#     143494
#     173617
#     201950
#     214626
#     242841
# 
# Disc length: 3634
# 
# Revision: 1
# Processed by: cddbd v1.5.2PL0 Copyright (c) Steve Scherf et al.
# Submitted via: BonkEnc v1.0.8
# 
DISCID=a90e300c
DTITLE=Music for  Wellness - 01-Feng Shui
DYEAR=2004
DGENRE=New Age
TTITLE0=Chrystal Sounds
TTITLE1=Mystic Ambients
TTITLE2=Temple Of The Sun
TTITLE3=Cherry Blossom Dreams
TTITLE4=Love Is In The Air
TTITLE5=Feelin' Good
TTITLE6=Enlightenment
TTITLE7=Rose Water Moon
TTITLE8=The Chi Flow In The Orbit
TTITLE9=Chinese Paradise
TTITLE10=Tribal Song
TTITLE11=The Magical Flow into Your Life
EXTD=
EXTT0=
EXTT1=
EXTT2=
EXTT3=
EXTT4=
EXTT5=
EXTT6=
EXTT7=
EXTT8=
EXTT9=
EXTT10=
EXTT11=
PLAYORDER=
